# xmcd
#
# Track frame offsets:
#	150
#	7006
#	35383
#	51974
#	69503
#	84824
#	94513
#	100138
#	115187
#	129787
#	152212
#	176044
#	199492
#	217037
#	234374
#	243438
#	249686
#	268287
#	290471
#
# Disc length: 4130 seconds
#
# Revision: 0
# Processed by: cddbd v1.5.1PL2 Copyright (c) Steve Scherf et al.
# Submitted via: EasyCDDAExtractor 8.1.2.3
#
DISCID=0c102013
DTITLE=Bakar - Pour les quartiers
DYEAR=2005
DGENRE=Rap
TTITLE0=Intro
TTITLE1=Classic
TTITLE2=Mon CV
TTITLE3=Ma Musique Venez La Vivre
TTITLE4=Visions
TTITLE5=Sous Pressions Part.2
TTITLE6=Freestyle Part.1
TTITLE7=Le Roloto Des Blocks
TTITLE8=Legendaire
TTITLE9=Niquer Le System
TTITLE10=On Revient Choquer La France
TTITLE11=Sans Artifice
TTITLE12=B.A.K
TTITLE13=Souffle De Vie
TTITLE14=Freestyle Part. 2
TTITLE15=On Fout Le Bordel
TTITLE16=Poing Lever
TTITLE17=Le Block
TTITLE18=Memoires D'immigres
EXTD=
EXTT0=
EXTT1=
EXTT2=
EXTT3=
EXTT4=
EXTT5=
EXTT6=
EXTT7=
EXTT8=
EXTT9=
EXTT10=
EXTT11=
EXTT12=
EXTT13=
EXTT14=
EXTT15=
EXTT16=
EXTT17=
EXTT18=
PLAYORDER=
